<svg id="Calque_1" data-name="Calque 1" xmlns="http://www.w3.org/2000/svg" viewBox="0 0 1000 800"><title>logo_outline</title><path d="M697.52,612.42a371.08,371.08,0,0,1-39.15,46.16,365.64,365.64,0,0,1-517-517.16,365.51,365.51,0,0,1,517,0,370.58,370.58,0,0,1,39.51,46.66l36.56-7.21A401.53,401.53,0,0,0,555.5,31.44,400,400,0,0,0,117.12,682.85a400,400,0,0,0,617-63.21Z"/><path d="M188.07,302h-14L174,386.35H157.08c-3.64,0-4.62-.58-4.62-4.63l0-79.78h-14a9.75,9.75,0,0,0-7.94,3.41,10.32,10.32,0,0,0-2.22,6.48l-.11,186.4h24.15l.05-88h19.14a2.52,2.52,0,0,1,2.43,2.3l0,85.68h24.15l.11-186.4C198.23,307.08,195.05,302,188.07,302Z"/><path d="M369,302H356.42L326.61,498.31h26.16l15.37-117.16,15.23,117.18,26.16,0-27.94-184C380.92,310,379.66,302,369,302Z"/><path d="M569.13,310.39a8.47,8.47,0,0,0-8-8.25l-16.1,0-.11,196.3,49.31,0h0c7.9,0,11.29-4,12.61-6.35l0-.08c.54-1.07,2-4.31,3.59-8.06l2.76-6.28,1.39-3.12-45.55,0Z"/><path d="M763.73,302.24H751.14L721.33,498.51h26.16l15.37-117.16,15.23,117.18,26.16,0-27.93-184C775.64,310.24,774.39,302.24,763.73,302.24Z"/><path d="M975.85,302.34l-.06,90.58L960,314.81c-.87-4.36-2.49-12.48-16.14-12.49H932.59l-.12,196.29,24.16,0,0-89.16,16.64,75.08,0,.18c.81,3.8,3,13.91,15.27,13.92h11.25l.12-196.29Z"/></svg>