<svg id="Calque_1" data-name="Calque 1" xmlns="http://www.w3.org/2000/svg" xmlns:xlink="http://www.w3.org/1999/xlink" viewBox="0 0 1000 801.48"><defs><style>.cls-1{fill:url(#Dégradé_sans_nom_24);}.cls-2{fill:#fff;}</style><linearGradient id="Dégradé_sans_nom_24" x1="0.28" y1="400.53" x2="804.58" y2="400.53" gradientUnits="userSpaceOnUse"><stop offset="0" stop-color="#0800fe"/><stop offset="0.11" stop-color="#0600cb"/><stop offset="0.24" stop-color="#050096"/><stop offset="0.37" stop-color="#030068"/><stop offset="0.5" stop-color="#020043"/><stop offset="0.63" stop-color="#010025"/><stop offset="0.75" stop-color="#010011"/><stop offset="0.88" stop-color="#000004"/><stop offset="1"/></linearGradient></defs><title>logo_gradient</title><ellipse class="cls-1" cx="402.43" cy="400.53" rx="402.15" ry="400"/><path class="cls-2" d="M188.36,300.56h-14l-.05,83.88H157.37c-3.64,0-4.62-.58-4.62-4.61l.05-79.27h-14a9.78,9.78,0,0,0-7.94,3.4,10.2,10.2,0,0,0-2.21,6.43l-.11,185.2,24.15,0,0-87.41h19.14a2.52,2.52,0,0,1,2.43,2.28l-.05,85.13H198.4l.11-185.2C198.51,305.67,195.34,300.57,188.36,300.56Z"/><path class="cls-2" d="M369.29,300.65H356.7l-29.81,195,26.16,0,15.37-116.41L383.65,495.7h26.16L381.88,312.87C381.21,308.6,380,300.66,369.29,300.65Z"/><path class="cls-2" d="M569.42,309a8.45,8.45,0,0,0-8.06-8.2H545.27l-.12,195,49.31,0h0c7.91,0,11.3-3.95,12.61-6.3l0-.09c.53-1.06,2-4.28,3.59-8,.95-2.16,1.93-4.39,2.76-6.24l1.39-3.11-45.55,0Z"/><path class="cls-2" d="M764,300.85H751.42l-29.81,195h26.16l15.37-116.41,15.23,116.43,26.16,0L776.6,313.07C775.93,308.8,774.67,300.85,764,300.85Z"/><path class="cls-2" d="M976.13,301l-.06,90-15.81-77.61c-.87-4.33-2.49-12.4-16.13-12.4H932.87l-.12,195h24.16l.05-88.59L973.6,482l0,.18c.81,3.78,3,13.82,15.27,13.83h11.25l.12-195Z"/></svg>